Coordinates
version=1
nRows=24
nColumns=24
inDegrees=yes

Units are S.I. units (second, meters, Newtons, ...)
Angles are in degrees.

endheader
time	pelvis_tilt	pelvis_list	pelvis_rotation	pelvis_tx	pelvis_ty	pelvis_tz	hip_flexion_r	hip_adduction_r	hip_rotation_r	knee_angle_r	ankle_angle_r	subtalar_angle_r	mtp_angle_r	hip_flexion_l	hip_adduction_l	hip_rotation_l	knee_angle_l	ankle_angle_l	subtalar_angle_l	mtp_angle_l	lumbar_extension	lumbar_bending	lumbar_rotation
      1.65333333	     -1.07259584	      8.08448353	     -5.11934824	      0.49256618	      1.00954674	      0.32774430	     21.24890813	    -11.65896947	      3.39922535	    -70.29591444	      0.49739373	     -1.88763956	     11.18979894	      7.56940114	     13.28935367	      3.37284619	    -13.12932138	      2.61505432	    -20.44943230	     -5.23090303	    -12.14501346	     -3.53219829	     -2.56851423
      1.65750000	     -1.07487658	      7.92102529	     -4.92210570	      0.49713123	      1.01033233	      0.32731983	     21.68174605	    -11.43775840	      3.27026616	    -69.76456357	      1.25689076	     -1.70438248	     11.14862624	      7.07482803	     13.16019492	      3.53577656	    -12.77926541	      2.60108122	    -20.35075698	     -5.25256652	    -12.16202795	     -3.29930532	     -2.64529524
      1.66166667	     -1.00854563	      7.80075926	     -4.74995353	      0.50167587	      1.01114081	      0.32688936	     22.05138934	    -11.28070287	      3.16592726	    -69.20921669	      1.99972610	     -1.34622648	     11.04243503	      6.47707035	     13.08755732	      3.77496737	    -12.34807002	      2.57510200	    -20.32088953	     -5.29798613	    -12.26459099	     -3.10056019	     -2.94644364
      1.66583333	     -0.98688034	      7.67099487	     -4.56452618	      0.50620715	      1.01187104	      0.32648743	     22.44789834	    -11.10149808	      3.05641228	    -68.60336726	      2.70984926	     -1.13888085	     10.92292462	      5.94021216	     12.99247268	      3.99394203	    -11.94336333	      2.50237790	    -20.30374738	     -5.34559458	    -12.31694369	     -2.90334630	     -3.17436198
      1.67000000	     -0.95306022	      7.55442385	     -4.38634854	      0.51072360	      1.01256202	      0.32608638	     22.82605437	    -10.94169759	      2.95029333	    -67.96198975	      3.37929863	     -0.96304905	     10.79254279	      5.38920180	     12.90818595	      4.19933878	    -11.52677806	      2.43675276	    -20.27641331	     -5.39254328	    -12.37693235	     -2.70721820	     -3.38643130
      1.67416667	     -0.94502513	      7.42195934	     -4.19935116	      0.51521896	      1.01321878	      0.32572508	     23.20767351	    -10.75339395	      2.84269725	    -67.26409495	      4.02711724	     -0.89022417	     10.72015065	      4.88512312	     12.79446606	      4.35829000	    -11.14976969	      2.36189298	    -20.19470581	     -5.41801571	    -12.41906401	     -2.51903958	     -3.50433960
      1.67833333	     -0.87749980	      7.34834588	     -4.02967121	      0.51971707	      1.01386923	      0.32534886	     23.53587167	    -10.64875622	      2.74684992	    -66.55058526	      4.62001911	     -0.76455556	     10.44909086	      4.27433788	     12.75343233	      4.62377598	    -10.66496471	      2.21221218	    -20.26036129	     -5.49720359	    -12.51104267	     -2.37593375	     -3.83004371
      1.68250000	     -0.89349923	      7.23252710	     -3.85731114	      0.52418658	      1.01438915	      0.32502718	     23.92715396	    -10.47228075	      2.66230374	    -65.77779293	      5.18179246	     -0.71669662	     10.37730600	      3.80257359	     12.64688292	      4.76892511	    -10.29255743	      2.18943321	    -20.16380060	     -5.51609862	    -12.51632735	     -2.21069664	     -3.89198163
      1.68666667	     -0.83808738	      7.14799503	     -3.69469462	      0.52866054	      1.01494663	      0.32469073	     24.23799975	    -10.34942461	      2.57462938	    -64.97753530	      5.69658091	     -0.65073895	     10.22269926	      3.22047898	     12.58036681	      4.98071774	     -9.83917674	      2.12204959	    -20.14539442	     -5.55146817	    -12.60468818	     -2.04579938	     -4.12427902
      1.69083333	     -0.82801206	      7.07408677	     -3.51542541	      0.53309922	      1.01542596	      0.32437849	     24.58103931	    -10.22815565	      2.49044619	    -64.13552596	      6.17725084	     -0.70803047	      9.94005386	      2.69494651	     12.51700795	      5.21273762	     -9.39490326	      1.95960609	    -20.16991203	     -5.60846550	    -12.65044188	     -1.92107624	     -4.34716669
      1.69500000	     -0.80610115	      6.99146556	     -3.35645924	      0.53754981	      1.01586375	      0.32409441	     24.89763821	    -10.09621710	      2.41440968	    -63.25053882	      6.61393062	     -0.75931635	      9.77383621	      2.16822120	     12.43800999	      5.37323931	     -8.97674279	      1.92024191	    -20.11067464	     -5.63567546	    -12.69040389	     -1.77867844	     -4.46032556
      1.69916667	     -0.78628245	      6.94355725	     -3.17755983	      0.54196977	      1.01626310	      0.32380008	     25.20659984	    -10.01085458	      2.32749725	    -62.33901672	      7.02775414	     -0.89471201	      9.41785355	      1.63511413	     12.39463656	      5.59223162	     -8.52932182	      1.75202614	    -20.13787650	     -5.68654660	    -12.73331043	     -1.68668019	     -4.67920103
      1.70333333	     -0.80420152	      6.85648498	     -3.00602853	      0.54637350	      1.01658807	      0.32356155	     25.52927084	     -9.86598991	      2.25461209	    -61.37056384	      7.40493886	     -1.03803720	      9.33713510	      1.17419832	     12.29750567	      5.73026568	     -8.15591508	      1.71830470	    -20.01583284	     -5.69442371	    -12.74949810	     -1.56278101	     -4.73104827
      1.70750000	     -0.77353193	      6.80265856	     -2.85220010	      0.55078508	      1.01692745	      0.32333387	     25.79625431	     -9.76214163	      2.19417070	    -60.37256132	      7.67410765	     -1.27049505	      9.18314451	      0.62937534	     12.23797115	      5.91884212	     -7.70651245	      1.64402796	    -19.97923878	     -5.70667145	    -12.80853197	     -1.45212804	     -4.92160202
      1.71166667	     -0.76839669	      6.75316611	     -2.68243691	      0.55518098	      1.01719854	      0.32310528	     26.07146897	     -9.66845713	      2.12075532	    -59.33979728	      7.94961541	     -1.52090456	      9.03632378	      0.12477287	     12.17776632	      6.10105419	     -7.28257024	      1.54629046	    -19.94014175	     -5.71558953	    -12.84000135	     -1.35867230	     -5.07168189
      1.71583333	     -0.76843726	      6.72446682	     -2.51912177	      0.55955315	      1.01739365	      0.32290015	     26.34762559	     -9.59376231	      2.06338558	    -58.28477639	      8.18074258	     -1.81077728	      8.85835470	     -0.37300204	     12.13625640	      6.29518478	     -6.85576791	      1.44115972	    -19.91588232	     -5.72252725	    -12.87260913	     -1.29140760	     -5.24083727
      1.72000000	     -0.78284830	      6.69298595	     -2.34987124	      0.56392518	      1.01755020	      0.32269957	     26.61780664	     -9.51909821	      1.99659045	    -57.18840863	      8.37926847	     -2.13773358	      8.69494314	     -0.84917187	     12.08724348	      6.46981547	     -6.44115778	      1.34894758	    -19.87660226	     -5.72514481	    -12.88460509	     -1.22292886	     -5.38425916
      1.72416667	     -0.79997962	      6.68159238	     -2.18473355	      0.56828765	      1.01764896	      0.32251685	     26.88164092	     -9.46648548	      1.93882624	    -56.06676376	      8.54681061	     -2.48751382	      8.53857948	     -1.31911053	     12.05593929	      6.64204432	     -6.03081050	      1.25885607	    -19.82863512	     -5.72488138	    -12.89352445	     -1.17790484	     -5.53207144
      1.72833333	     -0.83100697	      6.66814114	     -2.00658963	      0.57263027	      1.01769487	      0.32233678	     27.13929711	     -9.41701232	      1.86895735	    -54.91003593	      8.71526592	     -2.85957999	      8.42785408	     -1.75752917	     12.01778140	      6.79711653	     -5.65599766	      1.16695702	    -19.74543589	     -5.72289439	    -12.89842071	     -1.13936721	     -5.64917461
      1.73250000	     -0.84951924	      6.66032964	     -1.84211816	      0.57698779	      1.01773893	      0.32217910	     27.36830499	     -9.37338704	      1.80263713	    -53.71583333	      8.81220316	     -3.27267452	      8.31618278	     -2.22310541	     11.98242930	      6.95360995	     -5.24875089	      1.08764064	    -19.67028682	     -5.71891545	    -12.91734242	     -1.09994497	     -5.78953074
      1.73666667	     -0.87380450	      6.67355778	     -1.68210831	      0.58134009	      1.01768827	      0.32200124	     27.59866600	     -9.35776720	      1.74321047	    -52.51140813	      8.91218026	     -3.62954529	      7.50500217	     -2.70711194	     11.97496258	      7.24299566	     -4.79171277	      0.91773169	    -19.88280563	     -5.67668715	    -12.89957492	     -1.05679105	     -6.05805279
      1.74083333	     -0.89947615	      6.68416713	     -1.53943812	      0.58568427	      1.01763525	      0.32190814	     27.81161950	     -9.32434739	      1.70235060	    -51.25803077	      8.90785046	     -4.11782905	      7.38233840	     -3.14136785	     11.95076986	      7.30594359	     -4.42697824	      0.90697550	    -19.67586501	     -5.66700427	    -12.90671019	     -1.06037351	     -6.12416226
      1.74500000	     -0.92753660	      6.69300690	     -1.38505444	      0.59003628	      1.01753672	      0.32178937	     28.00495574	     -9.30203276	      1.64093973	    -49.97546524	      8.92834654	     -4.55900052	      7.27102706	     -3.57585350	     11.92499988	      7.41421284	     -4.06369556	      0.87993530	    -19.53850898	     -5.65646242	    -12.90104761	     -1.03963889	     -6.24137172
      1.74916667	     -0.97570008	      6.71031312	     -1.22623751	      0.59437072	      1.01737215	      0.32167723	     28.20773379	     -9.29454441	      1.56884716	    -48.67139943	      8.92801455	     -4.99808695	      7.16766952	     -3.98402102	     11.90501904	      7.52803023	     -3.70600518	      0.83594516	    -19.42358002	     -5.64552660	    -12.89464044	     -1.04152173	     -6.37014234
